<svg width="246" height="30" viewBox="0 0 246 30" fill="none" xmlns="http://www.w3.org/2000/svg">
<g clip-path="url(#clip0_1291_4488)">
<mask id="mask0_1291_4488" style="mask-type:luminance" maskUnits="userSpaceOnUse" x="0" y="0" width="75" height="30">
<path d="M74.8566 0.671875H0V29.9026H74.8566V0.671875Z" fill="white"/>
</mask>
<g mask="url(#mask0_1291_4488)">
<mask id="mask1_1291_4488" style="mask-type:luminance" maskUnits="userSpaceOnUse" x="0" y="0" width="75" height="30">
<path d="M74.8568 0.671875H0.0117188V29.8838H74.8568V0.671875Z" fill="white"/>
</mask>
<g mask="url(#mask1_1291_4488)">
<path d="M62.2399 0.671875H62.4017L62.8061 1.31849L63.0487 1.73689L63.4123 2.34547L63.6149 2.6878L63.9383 3.18227L64.6662 4.39943L64.9897 4.89391L65.1916 5.23623L65.7578 6.1491L66.2831 7.02393L66.9302 8.05092L67.3346 8.73553L67.5772 9.11599L67.9414 9.72453L68.2643 10.2571L68.7496 11.0178L68.9923 11.4361L69.4374 12.1588L69.8418 12.8055L70.2054 13.414V13.4901H70.2863L70.6098 14.0987L70.8123 14.403L71.1759 14.9735L71.3376 15.2398L71.8631 16.1146L72.4292 17.0275L72.6718 17.4458L72.9953 17.9404L73.3596 18.5489L73.9659 19.5379L74.3301 20.1085L74.3703 20.2606L74.2893 20.2986H64.0594L63.9785 20.2606V16.2287L64.1001 16.0385L64.5446 15.6201L64.6662 15.43H64.7471L64.7873 15.2778H64.8681L64.949 15.1257L65.3534 14.5931L65.6362 14.2508L66.0406 13.6803L66.5258 12.9576L66.5666 12.7674L66.364 12.5392L66.0406 12.2729L65.7578 11.9687L65.3935 11.5883L64.8279 10.8656L64.7471 10.6755H64.6662L64.4236 10.2571L64.1402 9.80061L63.7766 9.07792L63.4531 8.35522L63.2913 7.97484L63.2105 7.67055L62.9678 6.94785L62.887 6.87177H62.6443L62.6035 6.90982V11.5883L63.0487 11.8165L63.3315 12.1208L63.4531 12.4251V12.8055L63.3722 13.1098L63.0888 13.4521L62.6844 13.6423H62.6035L62.5634 20.2606L62.5227 20.2986H62.1183L62.0782 20.2606L62.0374 13.8325L61.9572 13.6423L61.4719 13.414L61.2694 13.1858L61.1484 12.8815V12.4251L61.3101 12.0828L61.5121 11.8545L61.9572 11.6263H62.0374V6.87177H61.7547L61.6337 6.98589L61.4719 7.51839L61.3101 8.01284L61.1484 8.35522L60.9459 8.84969L60.5821 9.61045L60.016 10.5233L59.733 10.9417L59.3286 11.4361L58.803 12.0448L58.2774 12.5392H58.1964L58.156 12.6534L58.0751 12.6913L58.1156 12.9576L58.3987 13.414L58.7221 13.8705L59.0052 14.2889L59.5712 15.0116L59.9351 15.43L60.2586 15.7723V15.8484L60.3799 15.8864L60.6225 16.1907V20.2606L60.5821 20.2986H43.6401L43.1953 20.2606V20.2225L43.5593 20.1465L43.9231 19.9943L44.4892 19.7281L44.9339 19.3477L45.217 18.9674L45.4192 18.4729L45.5001 17.9784V7.51839L45.5405 0.938131L45.6213 0.862054H51.8482L51.9291 0.900093V0.976162L51.3631 1.16635L50.9183 1.4326L50.6757 1.62279L50.3926 2.04119L50.2309 2.49762V18.5489L50.4331 19.0435L50.6757 19.3477L50.8374 19.2716L51.4439 18.2447L51.727 17.8263L51.9696 17.4078L52.4952 16.5711L52.7379 16.1146L52.94 15.8103L53.1017 15.5441L53.4252 15.0496L53.5466 14.8214L54.0317 14.0607L54.2743 13.6423L54.7596 12.8815L54.9213 12.5773L55.4065 11.8165L55.6491 11.3981L55.9726 10.9037L56.1343 10.5994L56.5791 9.87669L56.9834 9.22999L57.1856 8.88776L57.6708 8.12699L57.873 7.78469L58.2369 7.17609L58.7221 6.37732L59.1265 5.73071L59.733 4.7798L59.9351 4.3614H60.016L60.0565 4.20925L60.4204 3.60067L60.7034 3.18227L60.8249 2.95405L61.1484 2.42155L61.4719 1.92708L61.7145 1.50868L61.9973 1.05224L62.2399 0.671875Z" fill="#187163"/>
<path d="M16.1896 0.671875H16.311L16.5131 1.16635L16.877 2.15529L17.0388 2.53565L17.2813 3.22031L17.5644 3.943L18.1305 5.46445L18.2923 5.84482L18.373 6.1491L18.4135 6.41535L18.2114 6.83373L17.807 7.74661L17.5644 8.35522L17.2409 9.19199L16.9984 9.99076L16.594 11.6644L16.4726 12.5392L16.3918 13.1098L16.3514 13.7564V15.3158L16.3918 15.9245L16.594 17.1416L16.877 18.2066L17.0388 18.6631L17.2409 19.1575L17.524 19.7281L17.8474 20.2986L18.1305 20.7551L18.5348 21.2876L18.8988 21.744L19.1818 22.0103L19.1414 21.7821L18.8179 21.0593L18.5753 20.4888L18.454 20.1085L18.2114 19.4238L18.0092 18.6631L17.9283 18.4348L17.7666 17.6361L17.6857 17.2938L17.524 16.1146L17.4431 15.0876V13.7184L17.4836 13.0718L17.6049 12.1208L17.7261 11.3981L17.8879 10.8276L17.9687 10.4472L18.3326 9.34415L18.5753 8.73553L18.8584 8.16499L19.1818 7.5184L19.4648 7.06197L19.7074 6.64359L20.1522 5.99696L20.7991 5.16016L21.2439 4.66569L21.6078 4.24729L21.8909 3.98103L22.1739 3.67675L22.9018 2.99209L23.4274 2.57369L23.8722 2.19333L24.3979 1.81297L25.2065 1.24242L25.4087 1.28046V7.93684L25.2873 8.12699L24.7213 8.58338L23.6296 9.61045L23.3465 9.91468L22.9826 10.3331L22.5783 10.8276L22.2144 11.3221L21.8909 11.7785L21.2844 12.7294L20.9609 13.2999L20.6375 13.9465L20.5161 14.2128L20.1522 15.1637L19.9905 15.6201L19.667 16.9134L19.5861 17.4839L19.5457 17.5981L19.5053 18.0165L19.4648 18.9293V19.614L19.5457 20.8692L19.6266 21.1735L19.7478 21.9342L19.9096 22.6188L20.0714 23.1133L20.1926 23.5698L20.1118 23.6078H19.5457L18.2923 23.5317L17.2813 23.4556L16.2706 23.3415L15.4618 23.1894L14.8553 23.1133L13.8445 22.9231L13.1166 22.7329L12.0654 22.4667L10.9331 22.0863L10.1245 21.7821L9.67969 21.5918L8.74971 21.1735L8.18367 20.8692L7.53669 20.4888L6.68754 19.9182V19.8421L6.52579 19.8041L5.83843 19.1955L5.59582 19.0054L5.31278 18.7011L4.94887 18.3208L4.46366 17.7121L4.09975 17.1797L3.61454 16.3048L3.37193 15.7723L3.04845 14.8975L2.92715 14.403L2.88672 14.0226L3.00802 13.9846L3.81671 14.1748L4.26149 14.3269L5.83843 14.7834L6.28322 14.8975L6.60667 15.0116L6.97061 15.0876L7.33449 15.2398L7.45581 15.3158L7.658 15.6962L7.94101 16.1146L8.30497 16.6471L8.79014 17.2558L9.19445 17.7502L9.63926 18.2447L10.0032 18.625L10.4075 19.0054V19.0815L10.5288 19.1195L11.1354 19.6901L11.5801 20.0324L12.2271 20.5268L13.3189 21.2115L13.8849 21.5158L14.5723 21.8581L15.0979 22.0863L16.0683 22.4287L16.9579 22.6568L17.524 22.771H18.0092L17.6049 22.5428L16.4323 21.9722L15.7853 21.6299L15.3809 21.3637L14.8149 21.0593L14.4106 20.7931L13.9253 20.4888L13.3592 20.0704L12.7122 19.614L12.2675 19.2716L11.661 18.7391L11.1354 18.2827L10.6905 17.8643L10.4075 17.56L9.92228 17.0655L9.59883 16.6471L8.99229 15.8864L8.54755 15.2018L8.02187 14.2508L7.81972 13.7945L7.61756 13.2999L7.37493 12.5392L7.17275 11.6644L7.05149 10.3711V9.83861L7.17275 8.62145L7.37493 8.58338L7.98144 9.00184L8.0623 9.03992V9.11599L8.26453 9.19199L8.79014 9.57238L9.23495 9.87669L10.0032 10.4091L10.5693 10.7895L10.9331 11.0938L11.1758 12.1208L11.3375 12.6913L11.5397 13.4141L11.7014 13.7945L12.0249 14.7073L12.1866 15.0496L12.3888 15.5061L12.7931 16.3428L12.9953 16.7232L13.3592 17.3698L13.8445 18.1305L14.2892 18.7391V18.8152H14.3701L14.8553 19.4238L15.2596 19.8421L15.5427 20.1465L16.1492 20.7171L16.594 21.0593L16.9579 21.3256L17.2813 21.5538L17.8474 21.8961L18.373 22.1624H18.4944L17.8474 21.6299L16.877 20.7171L16.594 20.4127L16.2301 20.0324L15.9875 19.7661V19.6901H15.9066L15.664 19.3858L15.3809 19.0054V18.9293H15.3001L15.017 18.5109L14.6935 18.0925L14.5723 17.8643L14.2892 17.4458L14.0871 17.1036L13.7636 16.495L13.4401 15.8484L13.1975 15.2778L12.9549 14.6312L12.7122 13.8325L12.4697 12.7674L12.3484 11.8545L12.3079 11.246V9.83861L12.3888 8.88776L12.5101 8.20307L12.6719 7.48035L12.8335 6.83373L13.0762 6.1491L13.3996 5.27427L13.804 4.3614L14.2488 3.56264L14.4914 3.14424L14.8149 2.57369L15.1788 2.04119L15.3809 1.77493L15.5427 1.50868L15.947 0.976162L16.1896 0.671875Z" fill="#187163"/>
<path d="M34.707 0.9375H35.7178L35.92 1.05161L36.1222 1.47001L36.4457 2.1927L36.7692 2.95342L36.9309 3.29575L37.3757 4.32274L37.5778 4.74113L37.8609 5.42578L38.0226 5.73008L38.5888 7.06135L38.7505 7.36566L39.0739 8.12638L39.1548 8.24046L39.2356 8.46869L39.4378 8.96315L39.64 9.38154L40.1252 10.4846L40.7317 11.8539L41.0552 12.5766L41.2979 13.0711L41.5404 13.2612L41.6617 13.2993H42.1469L42.4704 13.1472L42.9152 12.8048L42.9961 12.7288L43.0365 12.8809L42.7534 13.5275L42.5512 13.9839L42.3491 14.3644L42.1065 14.9729L41.6617 16.0379L41.2574 16.9508L41.0552 17.4833L40.5296 18.7005L40.2869 19.309L39.9635 20.0318L39.8018 20.1839L39.4378 20.1458L39.1548 19.5753L38.9526 19.1188L38.6696 18.5103L38.1844 17.4072L37.9014 16.7986L37.6991 16.3802L37.497 15.9238L36.9309 14.6686L36.7692 14.3263L36.567 13.8318L36.4861 13.7177L36.4053 13.4515L36.2435 13.1852L36.0414 12.6907L34.8283 10.0282L34.6261 9.57177L34.3027 8.84908L33.8983 7.97423L33.494 7.06135L33.2513 6.56688L33.0492 6.07241L32.7257 5.34972L32.4831 4.85525L32.2 4.17058L32.0383 3.86629L31.8362 3.37182L31.634 2.95342L31.5936 2.76325L31.4722 2.83932V9.49569L31.6744 9.68585L31.917 9.95208L32.0788 10.2564L32.1192 10.5987L32.0788 10.941L31.8766 11.3215L31.5936 11.5876L31.4722 11.6638V16.8747L31.5531 18.0538L31.6744 18.6624L31.917 19.1188L32.3619 19.5753L32.7662 19.8415L33.3726 20.0698L33.5749 20.1078V20.1458L33.3322 20.1839H28.0758L27.9141 20.1078L28.6418 19.8035L29.1675 19.4612L29.4506 19.1568L29.6931 18.8526L29.9358 18.3582L30.1379 17.6355L30.2592 16.6845V11.6638L29.8549 11.3215L29.6122 10.865V10.3325L29.8549 9.838L30.1783 9.60977H30.2592V3.4479L30.1379 2.99146L29.8549 2.45895L29.6122 2.11662L29.2079 1.73626L28.8036 1.47001L28.1566 1.16572L27.9141 1.08965L27.9545 1.01357L28.4801 0.975538L34.707 0.9375Z" fill="#187163"/>
<path d="M9.43296 23.1895H11.8185L13.0315 23.2655L13.9212 23.3796L14.8511 23.5318L15.862 23.76L16.5898 23.9881L17.1155 24.1784L17.7624 24.4446L18.6115 24.9011L19.1372 25.2815L19.4202 25.4716L19.9863 26.0802L20.1885 26.2704L20.2694 26.5366L20.1076 26.4986L19.5415 26.3084L19.218 26.1942L18.8137 26.0421L18.2881 25.89L17.3985 25.6237L16.509 25.3955L16.145 25.3195L15.2959 25.1292L14.649 25.0151L13.9212 24.9011L12.6677 24.7489L11.9398 24.7108L11.6973 24.6728H8.78598L7.28993 24.7869L6.96643 24.8631L5.83428 25.0151L5.55123 25.0912L4.90428 25.2053L4.54037 25.3195L4.17646 25.3955L3.16561 25.6998L2.96343 25.8139L2.8017 26.2323L2.47822 27.3734L2.43778 27.6397L3.32734 27.4115L3.93385 27.2593L4.37863 27.1452L5.30862 26.9931L5.59167 26.917L6.2386 26.8409L7.57294 26.6888L8.50297 26.6508H10.7673L12.3038 26.7268L12.4251 26.7648L13.3146 26.8409L14.1233 26.955L14.8915 27.1071L15.3768 27.1832L16.4281 27.4115L17.156 27.6016L17.8433 27.7918L18.8137 28.0961L19.2989 28.2863H19.5415L19.865 28.02L20.3098 27.6016L20.7545 27.2593L21.1994 26.955L21.8867 26.6127L22.3315 26.4605L22.7359 26.3845H23.9085L24.3128 26.4986L24.7172 26.6508L24.9597 26.7648L25.5258 27.1071L25.8897 27.3734L26.1728 27.6777L26.375 27.8679L26.8197 28.3624L27.2241 28.2482L27.7093 28.0581L28.2754 27.8679L28.801 27.7158L29.8523 27.4495L30.7014 27.2593L31.0249 27.1832L31.7123 27.0691L32.3592 26.955L32.5209 26.917L33.6936 26.8028L34.664 26.7268L36.2814 26.6888L37.6157 26.7268L38.8692 26.8409L39.5161 26.917L39.6375 26.9931L39.4757 27.0311L38.5861 27.1071L37.8584 27.1832L37.5348 27.2593L36.9283 27.3354L35.8366 27.5255L34.1384 27.9059L33.4914 28.0581L32.7636 28.2482L32.1571 28.4004L31.7931 28.5145L31.1462 28.6666L30.661 28.8188L29.9331 29.009L29.3671 29.1991L28.801 29.3513L28.1541 29.5415L27.4263 29.7316H26.8602L26.4558 29.6176L25.9302 29.3513L25.1215 28.8188L24.515 28.4385L24.1511 28.2482L23.7467 28.0961L23.4233 28.02H22.8168L22.4528 28.0961L22.0485 28.2482L21.6442 28.4385L21.078 28.8568L20.8759 29.0471L20.3098 29.6176L20.0672 29.8077L19.9458 29.8458H19.6224L19.218 29.6556L18.8541 29.5415L18.1263 29.2752L17.722 29.1611L17.3985 29.0471L16.4686 28.7808L15.5385 28.5905L15.1342 28.5145L14.6086 28.4004L13.3146 28.2482L13.1933 28.2102L11.4547 28.1341L11.1311 28.0961H9.83734L9.43296 28.1341L7.69426 28.2102L6.52167 28.3624L5.91515 28.4385L5.22776 28.5525L4.62124 28.6666L4.29777 28.7427L3.52951 28.8948L2.8017 29.0851L1.95257 29.3132L1.22475 29.5415L0.699102 29.6936L0.335194 29.8458L0.0117188 29.8838L0.0521532 29.6176L0.294759 28.7047L0.375628 28.3243L0.537366 27.7158L0.618238 27.3354L0.860842 26.3465L0.982142 25.7378L1.14388 25.1292L1.30562 24.4446L1.50779 24.3305L4.01472 23.836L4.41907 23.76L5.42993 23.6078L6.80467 23.4176L7.69426 23.3415L8.2603 23.2655L9.43296 23.1895Z" fill="#187163"/>
<path d="M43.1542 9.41992L43.6799 9.45792L44.1247 9.68623L44.3673 9.95238L44.4886 10.1807L44.5695 10.4849V10.7512L44.4077 11.2076L44.1247 11.5119L43.7203 11.7402L43.5182 11.7782H43.1542L42.7903 11.7021L42.4264 11.4739L42.1839 11.1696L42.0625 10.8653V10.3328L42.2243 9.99046L42.4668 9.68623L42.9521 9.45792L43.1542 9.41992Z" fill="#187163"/>
<path d="M30.2596 22.559V23.1596H29.5046V24.5611H28.7369V23.1596H27.9844V22.559H30.2596ZM32.1998 22.559H32.9675V24.5611H32.1998V23.8626H31.4499V24.5611H30.6846V22.559H31.4499V23.2573H32.1998V22.559ZM33.4049 24.5611V22.559H35.3635V23.1333H34.1701V23.3288H35.3179V23.7912H34.1701V23.9843H35.3635V24.5611H33.4049ZM36.7433 24.5611V22.559H37.706L37.9924 23.6124H38.0481L38.3345 22.559H39.2973V24.5611H38.5676V23.7793H38.5093L38.3015 24.5611H37.739L37.5313 23.7793H37.473V24.5611H36.7433ZM41.4799 24.5611L41.3988 24.3203H40.5323L40.4512 24.5611H39.6608L40.4285 22.559H41.5027L42.273 24.5611H41.4799ZM40.7122 23.7888H41.2189L41.0315 23.2359H40.8997L40.7122 23.7888ZM43.5795 24.6278C42.8168 24.6254 42.4697 24.411 42.4925 23.8746H43.179C43.1841 23.9938 43.2905 24.0629 43.5795 24.0677C43.8277 24.07 43.9341 24.0081 43.9341 23.9366C43.9341 23.8984 43.9239 23.8317 43.7315 23.8079L43.4527 23.7674C43.0524 23.7078 42.5405 23.6816 42.5405 23.1429C42.5405 22.7401 42.8826 22.4922 43.587 22.4922C44.2153 22.4922 44.6537 22.6448 44.636 23.2406H43.9519C43.9291 23.1239 43.8201 23.0523 43.5693 23.0523C43.3539 23.0523 43.2753 23.1096 43.2753 23.181C43.2753 23.2144 43.293 23.2812 43.4375 23.3026L43.6605 23.336C44.0887 23.4027 44.6968 23.3956 44.6968 23.9676C44.6968 24.4156 44.332 24.6302 43.5795 24.6278ZM47.2914 22.559V23.1596H46.5364V24.5611H45.7687V23.1596H45.0162V22.559H47.2914ZM47.7164 24.5611V22.559H49.6751V23.1333H48.4816V23.3288H49.6294V23.7912H48.4816V23.9843H49.6751V24.5611H47.7164ZM52.3837 24.5611H51.6312L51.3626 24.07H50.8812V24.5611H50.116V22.559H51.3677C51.9657 22.559 52.3052 22.7925 52.3052 23.3407C52.3052 23.603 52.1836 23.7936 52.0138 23.9127L52.3837 24.5611ZM50.8812 23.1572V23.5338H51.3119C51.464 23.5338 51.5374 23.4623 51.5374 23.3455C51.5374 23.2287 51.464 23.1572 51.3119 23.1572H50.8812ZM53.7479 24.6278C52.9853 24.6254 52.6381 24.411 52.6609 23.8746H53.3476C53.3526 23.9938 53.459 24.0629 53.7479 24.0677C53.9962 24.07 54.1027 24.0081 54.1027 23.9366C54.1027 23.8984 54.0925 23.8317 53.8999 23.8079L53.6212 23.7674C53.2209 23.7078 52.7091 23.6816 52.7091 23.1429C52.7091 22.7401 53.0511 22.4922 53.7555 22.4922C54.3839 22.4922 54.8222 22.6448 54.8044 23.2406H54.1204C54.0975 23.1239 53.9886 23.0523 53.7378 23.0523C53.5224 23.0523 53.4438 23.1096 53.4438 23.181C53.4438 23.2144 53.4616 23.2812 53.606 23.3026L53.829 23.336C54.2572 23.4027 54.8653 23.3956 54.8653 23.9676C54.8653 24.4156 54.5004 24.6302 53.7479 24.6278ZM57.9416 24.5611L57.8606 24.3203H56.994L56.913 24.5611H56.1224L56.8901 22.559H57.9644L58.7347 24.5611H57.9416ZM57.1739 23.7888H57.6807L57.4931 23.2359H57.3614L57.1739 23.7888ZM60.0601 24.6278C59.3328 24.6278 58.854 24.2059 58.854 23.56C58.854 22.9141 59.3328 22.4922 60.0601 22.4922C60.5947 22.4922 61.147 22.7139 61.2055 23.4193H60.4755C60.4274 23.212 60.2779 23.1143 60.0601 23.1143C59.8142 23.1143 59.6141 23.2835 59.6141 23.56C59.6141 23.8341 59.8142 24.0057 60.0601 24.0057C60.2779 24.0057 60.4274 23.908 60.4755 23.6959H61.2055C61.147 24.4061 60.6023 24.6278 60.0601 24.6278ZM63.1921 24.5611L63.1112 24.3203H62.2446L62.1632 24.5611H61.3726L62.1407 22.559H63.2152L63.985 24.5611H63.1921ZM62.4247 23.7888H62.9312L62.7439 23.2359H62.6119L62.4247 23.7888ZM65.4469 22.559C66.3262 22.559 66.6278 22.9809 66.6278 23.56C66.6278 24.1368 66.3262 24.5611 65.4469 24.5611H64.3474V22.559H65.4469ZM65.4469 23.958C65.6725 23.958 65.8574 23.858 65.8574 23.56C65.8574 23.2597 65.6725 23.162 65.4469 23.162H65.118L65.1149 23.958H65.4469ZM67.0407 24.5611V22.559H68.9994V23.1333H67.8063V23.3288H68.9538V23.7912H67.8063V23.9843H68.9994V24.5611H67.0407ZM69.4403 24.5611V22.559H70.4035L70.6899 23.6124H70.7452L71.0317 22.559H71.9942V24.5611H71.2645V23.7793H71.2068L70.9988 24.5611H70.4363L70.2284 23.7793H70.17V24.5611H69.4403ZM74.8462 22.559L73.9773 23.9461V24.5611H73.2093V23.939L72.3427 22.559H73.1484L73.5668 23.2644H73.6246L74.0429 22.559H74.8462Z" fill="#FEA800"/>
</g>
</g>
<path d="M96.7334 7.24129V8.94125H93.3576V18.3643H91.2701V8.94125H87.8789V7.24129H96.7334ZM98.1806 18.3643V6.93359H100.097V11.3259C100.408 11.0336 100.749 10.7977 101.122 10.6182C101.494 10.4387 101.931 10.3489 102.433 10.3489C102.868 10.3489 103.253 10.4233 103.59 10.572C103.926 10.7156 104.205 10.9208 104.428 11.1874C104.655 11.4489 104.826 11.7643 104.94 12.1336C105.059 12.4977 105.118 12.9002 105.118 13.3412V18.3643H103.202V13.3412C103.202 12.8592 103.087 12.4874 102.86 12.2259C102.637 11.9592 102.301 11.8259 101.851 11.8259C101.52 11.8259 101.209 11.9002 100.92 12.0489C100.63 12.1977 100.356 12.4002 100.097 12.6566V18.3643H98.1806ZM110.525 10.3489C111.026 10.3489 111.487 10.4285 111.906 10.5874C112.33 10.7464 112.695 10.9797 113 11.2874C113.305 11.59 113.544 11.9643 113.714 12.4105C113.885 12.8516 113.97 13.3566 113.97 13.9259C113.97 14.0695 113.963 14.19 113.947 14.2874C113.936 14.3797 113.913 14.4541 113.877 14.5105C113.846 14.5618 113.802 14.6002 113.745 14.6259C113.688 14.6464 113.616 14.6566 113.528 14.6566H108.608C108.665 15.4669 108.884 16.0618 109.268 16.4412C109.65 16.8208 110.157 17.0105 110.789 17.0105C111.099 17.0105 111.365 16.9746 111.588 16.9028C111.815 16.831 112.012 16.7516 112.178 16.6643C112.349 16.5772 112.496 16.4977 112.62 16.4259C112.749 16.3541 112.873 16.3182 112.993 16.3182C113.07 16.3182 113.137 16.3336 113.194 16.3643C113.251 16.3951 113.3 16.4387 113.342 16.4951L113.901 17.1874C113.688 17.4336 113.45 17.6412 113.187 17.8105C112.923 17.9746 112.646 18.1079 112.356 18.2105C112.071 18.3079 111.779 18.3772 111.479 18.4182C111.184 18.4592 110.897 18.4797 110.618 18.4797C110.064 18.4797 109.549 18.39 109.074 18.2105C108.597 18.0259 108.184 17.7566 107.832 17.4028C107.48 17.0439 107.203 16.6028 107.002 16.0797C106.8 15.5516 106.699 14.9412 106.699 14.2489C106.699 13.7105 106.787 13.2054 106.963 12.7336C107.138 12.2566 107.39 11.8439 107.716 11.4951C108.046 11.1412 108.447 10.8618 108.919 10.6566C109.394 10.4516 109.93 10.3489 110.525 10.3489ZM110.564 11.7105C110.005 11.7105 109.567 11.8669 109.252 12.1797C108.936 12.4926 108.735 12.9362 108.647 13.5105H112.248C112.248 13.2643 112.214 13.0336 112.147 12.8182C112.079 12.5977 111.976 12.4054 111.836 12.2412C111.697 12.0772 111.521 11.9489 111.309 11.8566C111.096 11.7592 110.848 11.7105 110.564 11.7105Z" fill="#FEA800"/>
<path d="M124.732 13.7489C124.819 13.9131 124.899 14.0849 124.972 14.2643C125.05 14.4387 125.124 14.6156 125.197 14.7951C125.269 14.6105 125.345 14.4285 125.422 14.2489C125.5 14.0695 125.582 13.8977 125.671 13.7336L128.992 7.57206C129.033 7.49513 129.074 7.43359 129.116 7.38744C129.163 7.34129 129.212 7.30795 129.264 7.28744C129.32 7.26692 129.382 7.2541 129.45 7.24898C129.517 7.24385 129.597 7.24129 129.69 7.24129H131.266V18.3643H129.427V11.1797C129.427 11.0464 129.429 10.9002 129.434 10.7412C129.444 10.5823 129.458 10.4208 129.473 10.2566L126.082 16.5643C126.004 16.7079 125.903 16.8208 125.779 16.9028C125.655 16.9797 125.51 17.0182 125.345 17.0182H125.058C124.891 17.0182 124.747 16.9797 124.623 16.9028C124.499 16.8208 124.398 16.7079 124.32 16.5643L120.883 10.2336C120.903 10.4028 120.916 10.5695 120.921 10.7336C120.931 10.8926 120.937 11.0412 120.937 11.1797V18.3643H119.098V7.24129H120.673C120.766 7.24129 120.846 7.24385 120.914 7.24898C120.98 7.2541 121.04 7.26692 121.092 7.28744C121.149 7.30795 121.201 7.34129 121.247 7.38744C121.294 7.43359 121.337 7.49513 121.379 7.57206L124.732 13.7489ZM139.89 18.3643H139.028C138.847 18.3643 138.705 18.3387 138.601 18.2874C138.498 18.231 138.421 18.1208 138.369 17.9566L138.198 17.3951C137.996 17.5746 137.798 17.7336 137.6 17.872C137.41 18.0054 137.21 18.1182 137.003 18.2105C136.796 18.3028 136.576 18.372 136.343 18.4182C136.11 18.4643 135.852 18.4874 135.567 18.4874C135.231 18.4874 134.921 18.4439 134.636 18.3566C134.352 18.2643 134.106 18.1285 133.899 17.9489C133.697 17.7695 133.539 17.5464 133.425 17.2797C133.312 17.0131 133.255 16.7028 133.255 16.3489C133.255 16.0516 133.332 15.7592 133.487 15.472C133.648 15.1797 133.912 14.9182 134.279 14.6874C134.647 14.4516 135.136 14.2566 135.746 14.1028C136.356 13.9489 137.115 13.8618 138.019 13.8412V13.3797C138.019 12.8516 137.906 12.4618 137.678 12.2105C137.456 11.9541 137.13 11.8259 136.7 11.8259C136.39 11.8259 136.131 11.8618 135.924 11.9336C135.718 12.0054 135.536 12.0874 135.381 12.1797C135.231 12.2669 135.092 12.3464 134.962 12.4182C134.833 12.49 134.69 12.5259 134.535 12.5259C134.406 12.5259 134.295 12.4926 134.201 12.4259C134.108 12.3592 134.034 12.2772 133.976 12.1797L133.627 11.572C134.543 10.7412 135.648 10.3259 136.941 10.3259C137.406 10.3259 137.821 10.4028 138.182 10.5566C138.55 10.7054 138.861 10.9156 139.114 11.1874C139.367 11.4541 139.559 11.7746 139.688 12.1489C139.823 12.5233 139.89 12.9336 139.89 13.3797V18.3643ZM136.165 17.1797C136.362 17.1797 136.543 17.1618 136.708 17.1259C136.874 17.09 137.029 17.0362 137.174 16.9643C137.324 16.8926 137.466 16.8054 137.6 16.7028C137.74 16.5951 137.88 16.4695 138.019 16.3259V14.9951C137.461 15.0208 136.993 15.0695 136.615 15.1412C136.242 15.2079 135.943 15.2951 135.715 15.4028C135.487 15.5105 135.324 15.6362 135.226 15.7797C135.133 15.9233 135.086 16.0797 135.086 16.2489C135.086 16.5823 135.185 16.8208 135.381 16.9643C135.583 17.1079 135.844 17.1797 136.165 17.1797ZM146.733 12.0105C146.681 12.0926 146.627 12.1516 146.57 12.1874C146.514 12.2182 146.441 12.2336 146.353 12.2336C146.26 12.2336 146.159 12.2079 146.051 12.1566C145.947 12.1054 145.826 12.0489 145.686 11.9874C145.546 11.9208 145.386 11.8618 145.205 11.8105C145.029 11.7592 144.819 11.7336 144.576 11.7336C144.198 11.7336 143.901 11.8131 143.684 11.972C143.466 12.131 143.358 12.3387 143.358 12.5951C143.358 12.7643 143.412 12.9079 143.521 13.0259C143.635 13.1387 143.782 13.2387 143.963 13.3259C144.149 13.4131 144.359 13.4926 144.592 13.5643C144.824 13.631 145.063 13.7054 145.306 13.7874C145.548 13.8695 145.787 13.9643 146.02 14.072C146.252 14.1746 146.46 14.3079 146.64 14.472C146.827 14.631 146.974 14.8233 147.083 15.0489C147.197 15.2746 147.253 15.5464 147.253 15.8643C147.253 16.2439 147.184 16.5951 147.044 16.9182C146.904 17.2362 146.7 17.5131 146.431 17.7489C146.162 17.9797 145.828 18.1618 145.43 18.2951C145.036 18.4233 144.584 18.4874 144.072 18.4874C143.798 18.4874 143.528 18.4618 143.265 18.4105C143.006 18.3643 142.755 18.2977 142.512 18.2105C142.274 18.1233 142.052 18.0208 141.845 17.9028C141.643 17.7849 141.464 17.6566 141.309 17.5182L141.751 16.7951C141.808 16.7079 141.876 16.6412 141.953 16.5951C142.031 16.5489 142.129 16.5259 142.248 16.5259C142.367 16.5259 142.479 16.5592 142.582 16.6259C142.69 16.6926 142.815 16.7643 142.954 16.8412C143.094 16.9182 143.257 16.99 143.443 17.0566C143.635 17.1233 143.875 17.1566 144.165 17.1566C144.392 17.1566 144.586 17.131 144.747 17.0797C144.912 17.0233 145.047 16.9516 145.15 16.8643C145.259 16.7772 145.337 16.6772 145.383 16.5643C145.435 16.4464 145.461 16.3259 145.461 16.2028C145.461 16.0182 145.404 15.8669 145.29 15.7489C145.181 15.631 145.034 15.5285 144.848 15.4412C144.667 15.3541 144.457 15.2772 144.219 15.2105C143.986 15.1387 143.746 15.0618 143.497 14.9797C143.255 14.8977 143.014 14.8028 142.776 14.6951C142.543 14.5823 142.333 14.4412 142.147 14.272C141.966 14.1028 141.819 13.8951 141.705 13.6489C141.596 13.4028 141.542 13.1054 141.542 12.7566C141.542 12.4336 141.606 12.1259 141.736 11.8336C141.865 11.5412 142.054 11.2874 142.302 11.072C142.556 10.8516 142.869 10.6772 143.241 10.5489C143.619 10.4156 144.054 10.3489 144.545 10.3489C145.094 10.3489 145.593 10.4387 146.043 10.6182C146.493 10.7977 146.868 11.0336 147.168 11.3259L146.733 12.0105ZM151.63 18.4874C150.943 18.4874 150.412 18.2951 150.039 17.9105C149.667 17.5208 149.481 16.9849 149.481 16.3028V11.8951H148.674C148.57 11.8951 148.48 11.8618 148.402 11.7951C148.33 11.7285 148.293 11.6285 148.293 11.4951V10.7412L149.574 10.5336L149.977 8.37971C149.998 8.27717 150.045 8.19771 150.117 8.14125C150.195 8.08486 150.291 8.05663 150.404 8.05663H151.397V10.5412H153.493V11.8951H151.397V16.172C151.397 16.4182 151.459 16.6105 151.584 16.7489C151.708 16.8874 151.874 16.9566 152.08 16.9566C152.2 16.9566 152.298 16.9439 152.375 16.9182C152.458 16.8874 152.528 16.8566 152.585 16.8259C152.647 16.7951 152.701 16.7669 152.748 16.7412C152.794 16.7105 152.841 16.6951 152.887 16.6951C152.945 16.6951 152.991 16.7105 153.027 16.7412C153.064 16.7669 153.102 16.8079 153.143 16.8643L153.718 17.7874C153.438 18.0182 153.118 18.1926 152.755 18.3105C152.394 18.4285 152.018 18.4874 151.63 18.4874ZM158.541 10.3489C159.043 10.3489 159.503 10.4285 159.922 10.5874C160.346 10.7464 160.711 10.9797 161.016 11.2874C161.321 11.59 161.559 11.9643 161.73 12.4105C161.901 12.8516 161.986 13.3566 161.986 13.9259C161.986 14.0695 161.978 14.19 161.963 14.2874C161.953 14.3797 161.93 14.4541 161.893 14.5105C161.862 14.5618 161.818 14.6002 161.761 14.6259C161.705 14.6464 161.632 14.6566 161.544 14.6566H156.624C156.681 15.4669 156.901 16.0618 157.284 16.4412C157.666 16.8208 158.174 17.0105 158.805 17.0105C159.115 17.0105 159.381 16.9746 159.604 16.9028C159.831 16.831 160.028 16.7516 160.194 16.6643C160.364 16.5772 160.512 16.4977 160.636 16.4259C160.766 16.3541 160.89 16.3182 161.008 16.3182C161.086 16.3182 161.154 16.3336 161.21 16.3643C161.267 16.3951 161.317 16.4387 161.358 16.4951L161.916 17.1874C161.705 17.4336 161.466 17.6412 161.202 17.8105C160.939 17.9746 160.662 18.1079 160.372 18.2105C160.087 18.3079 159.796 18.3772 159.495 18.4182C159.2 18.4592 158.913 18.4797 158.634 18.4797C158.081 18.4797 157.565 18.39 157.09 18.2105C156.614 18.0259 156.199 17.7566 155.848 17.4028C155.496 17.0439 155.219 16.6028 155.018 16.0797C154.816 15.5516 154.715 14.9412 154.715 14.2489C154.715 13.7105 154.803 13.2054 154.979 12.7336C155.155 12.2566 155.406 11.8439 155.731 11.4951C156.063 11.1412 156.463 10.8618 156.934 10.6566C157.41 10.4516 157.945 10.3489 158.541 10.3489ZM158.579 11.7105C158.021 11.7105 157.584 11.8669 157.268 12.1797C156.952 12.4926 156.75 12.9362 156.663 13.5105H160.263C160.263 13.2643 160.23 13.0336 160.163 12.8182C160.095 12.5977 159.992 12.4054 159.852 12.2412C159.712 12.0772 159.536 11.9489 159.324 11.8566C159.113 11.7592 158.864 11.7105 158.579 11.7105ZM163.773 18.3643V10.472H164.899C165.096 10.472 165.232 10.5079 165.31 10.5797C165.388 10.6516 165.44 10.7746 165.465 10.9489L165.582 11.9028C165.866 11.4156 166.2 11.031 166.583 10.7489C166.966 10.4669 167.395 10.3259 167.871 10.3259C168.264 10.3259 168.59 10.4156 168.849 10.5951L168.6 12.0182C168.585 12.1105 168.551 12.1772 168.499 12.2182C168.448 12.2541 168.378 12.272 168.29 12.272C168.212 12.272 168.107 12.2541 167.972 12.2182C167.837 12.1823 167.659 12.1643 167.436 12.1643C167.038 12.1643 166.697 12.2746 166.412 12.4951C166.128 12.7105 165.887 13.0285 165.69 13.4489V18.3643H163.773ZM175.068 12.0105C175.016 12.0926 174.962 12.1516 174.906 12.1874C174.848 12.2182 174.776 12.2336 174.688 12.2336C174.595 12.2336 174.494 12.2079 174.386 12.1566C174.282 12.1054 174.161 12.0489 174.021 11.9874C173.881 11.9208 173.721 11.8618 173.54 11.8105C173.364 11.7592 173.154 11.7336 172.911 11.7336C172.533 11.7336 172.236 11.8131 172.019 11.972C171.801 12.131 171.693 12.3387 171.693 12.5951C171.693 12.7643 171.747 12.9079 171.856 13.0259C171.969 13.1387 172.116 13.2387 172.298 13.3259C172.484 13.4131 172.694 13.4926 172.927 13.5643C173.159 13.631 173.397 13.7054 173.641 13.7874C173.883 13.8695 174.122 13.9643 174.355 14.072C174.587 14.1746 174.794 14.3079 174.975 14.472C175.162 14.631 175.309 14.8233 175.418 15.0489C175.531 15.2746 175.588 15.5464 175.588 15.8643C175.588 16.2439 175.519 16.5951 175.379 16.9182C175.239 17.2362 175.034 17.5131 174.766 17.7489C174.497 17.9797 174.163 18.1618 173.765 18.2951C173.371 18.4233 172.919 18.4874 172.407 18.4874C172.132 18.4874 171.863 18.4618 171.599 18.4105C171.34 18.3643 171.09 18.2977 170.847 18.2105C170.609 18.1233 170.386 18.0208 170.18 17.9028C169.978 17.7849 169.799 17.6566 169.644 17.5182L170.086 16.7951C170.143 16.7079 170.211 16.6412 170.288 16.5951C170.366 16.5489 170.464 16.5259 170.583 16.5259C170.702 16.5259 170.813 16.5592 170.917 16.6259C171.025 16.6926 171.15 16.7643 171.289 16.8412C171.429 16.9182 171.592 16.99 171.778 17.0566C171.969 17.1233 172.21 17.1566 172.5 17.1566C172.727 17.1566 172.921 17.131 173.082 17.0797C173.247 17.0233 173.381 16.9516 173.485 16.8643C173.594 16.7772 173.672 16.6772 173.718 16.5643C173.769 16.4464 173.796 16.3259 173.796 16.2028C173.796 16.0182 173.738 15.8669 173.625 15.7489C173.516 15.631 173.369 15.5285 173.183 15.4412C173.001 15.3541 172.792 15.2772 172.554 15.2105C172.321 15.1387 172.081 15.0618 171.832 14.9797C171.589 14.8977 171.348 14.8028 171.111 14.6951C170.878 14.5823 170.668 14.4412 170.482 14.272C170.301 14.1028 170.153 13.8951 170.04 13.6489C169.931 13.4028 169.877 13.1054 169.877 12.7566C169.877 12.4336 169.941 12.1259 170.071 11.8336C170.2 11.5412 170.389 11.2874 170.637 11.072C170.89 10.8516 171.204 10.6772 171.576 10.5489C171.954 10.4156 172.388 10.3489 172.88 10.3489C173.428 10.3489 173.928 10.4387 174.378 10.6182C174.828 10.7977 175.203 11.0336 175.503 11.3259L175.068 12.0105ZM190.556 18.3643H188.941C188.761 18.3643 188.61 18.3208 188.491 18.2336C188.377 18.1412 188.295 18.0285 188.243 17.8951L187.405 15.6259H182.757L181.918 17.8951C181.877 18.0131 181.794 18.1208 181.67 18.2182C181.551 18.3156 181.404 18.3643 181.228 18.3643H179.606L184.014 7.24129H186.148L190.556 18.3643ZM183.292 14.1643H186.869L185.504 10.4643C185.442 10.3002 185.372 10.1079 185.294 9.8874C185.222 9.66179 185.149 9.41817 185.077 9.15663C185.005 9.41817 184.932 9.66179 184.86 9.8874C184.792 10.1131 184.725 10.3105 184.658 10.4797L183.292 14.1643ZM197.43 12.1412C197.374 12.2131 197.317 12.2695 197.26 12.3105C197.208 12.3516 197.131 12.372 197.027 12.372C196.929 12.372 196.833 12.3439 196.74 12.2874C196.647 12.2259 196.536 12.1592 196.406 12.0874C196.277 12.0105 196.122 11.9439 195.94 11.8874C195.765 11.8259 195.545 11.7951 195.281 11.7951C194.945 11.7951 194.65 11.8566 194.396 11.9797C194.143 12.0977 193.931 12.2695 193.76 12.4951C193.595 12.7208 193.47 12.9951 193.387 13.3182C193.305 13.6362 193.263 13.9977 193.263 14.4028C193.263 14.8233 193.307 15.1977 193.395 15.5259C193.488 15.8541 193.62 16.131 193.791 16.3566C193.962 16.5772 194.169 16.7464 194.412 16.8643C194.655 16.9772 194.929 17.0336 195.234 17.0336C195.54 17.0336 195.785 16.9977 195.971 16.9259C196.163 16.8489 196.324 16.7669 196.453 16.6797C196.582 16.5874 196.693 16.5054 196.786 16.4336C196.885 16.3566 196.994 16.3182 197.112 16.3182C197.267 16.3182 197.384 16.3772 197.461 16.4951L198.012 17.1874C197.801 17.4336 197.57 17.6412 197.322 17.8105C197.073 17.9746 196.815 18.1079 196.546 18.2105C196.282 18.3079 196.008 18.3772 195.723 18.4182C195.439 18.4592 195.157 18.4797 194.877 18.4797C194.386 18.4797 193.923 18.39 193.488 18.2105C193.054 18.0259 192.673 17.7592 192.347 17.4105C192.027 17.0618 191.771 16.6362 191.579 16.1336C191.393 15.6259 191.3 15.0489 191.3 14.4028C191.3 13.8233 191.383 13.2874 191.548 12.7951C191.719 12.2977 191.967 11.8695 192.293 11.5105C192.619 11.1464 193.023 10.8618 193.504 10.6566C193.985 10.4516 194.539 10.3489 195.164 10.3489C195.76 10.3489 196.28 10.4439 196.724 10.6336C197.174 10.8233 197.578 11.0951 197.935 11.4489L197.43 12.1412ZM205.704 18.3643H204.843C204.661 18.3643 204.519 18.3387 204.416 18.2874C204.312 18.231 204.235 18.1208 204.183 17.9566L204.013 17.3951C203.811 17.5746 203.611 17.7336 203.415 17.872C203.223 18.0054 203.024 18.1182 202.818 18.2105C202.61 18.3028 202.391 18.372 202.158 18.4182C201.925 18.4643 201.666 18.4874 201.382 18.4874C201.045 18.4874 200.735 18.4439 200.451 18.3566C200.166 18.2643 199.92 18.1285 199.713 17.9489C199.512 17.7695 199.353 17.5464 199.24 17.2797C199.126 17.0131 199.069 16.7028 199.069 16.3489C199.069 16.0516 199.147 15.7592 199.302 15.472C199.462 15.1797 199.726 14.9182 200.094 14.6874C200.461 14.4516 200.95 14.2566 201.56 14.1028C202.17 13.9489 202.929 13.8618 203.834 13.8412V13.3797C203.834 12.8516 203.72 12.4618 203.493 12.2105C203.27 11.9541 202.944 11.8259 202.515 11.8259C202.205 11.8259 201.945 11.8618 201.739 11.9336C201.532 12.0054 201.351 12.0874 201.196 12.1797C201.045 12.2669 200.905 12.3464 200.777 12.4182C200.647 12.49 200.505 12.5259 200.35 12.5259C200.22 12.5259 200.109 12.4926 200.016 12.4259C199.923 12.3592 199.848 12.2772 199.791 12.1797L199.442 11.572C200.358 10.7412 201.462 10.3259 202.755 10.3259C203.221 10.3259 203.635 10.4028 203.997 10.5566C204.364 10.7054 204.675 10.9156 204.928 11.1874C205.181 11.4541 205.373 11.7746 205.503 12.1489C205.637 12.5233 205.704 12.9336 205.704 13.3797V18.3643ZM201.979 17.1797C202.176 17.1797 202.357 17.1618 202.523 17.1259C202.688 17.09 202.843 17.0362 202.988 16.9643C203.138 16.8926 203.28 16.8054 203.415 16.7028C203.555 16.5951 203.694 16.4695 203.834 16.3259V14.9951C203.275 15.0208 202.807 15.0695 202.43 15.1412C202.057 15.2079 201.757 15.2951 201.529 15.4028C201.301 15.5105 201.138 15.6362 201.04 15.7797C200.947 15.9233 200.901 16.0797 200.901 16.2489C200.901 16.5823 200.999 16.8208 201.196 16.9643C201.397 17.1079 201.658 17.1797 201.979 17.1797ZM213.424 18.3643C213.176 18.3643 213.013 18.2489 212.935 18.0182L212.78 17.2566C212.615 17.4412 212.442 17.6079 212.26 17.7566C212.079 17.9054 211.883 18.0336 211.67 18.1412C211.464 18.2489 211.239 18.331 210.995 18.3874C210.758 18.4489 210.499 18.4797 210.219 18.4797C209.785 18.4797 209.387 18.39 209.024 18.2105C208.663 18.031 208.349 17.772 208.085 17.4336C207.827 17.09 207.625 16.6669 207.48 16.1643C207.34 15.6618 207.27 15.0874 207.27 14.4412C207.27 13.8566 207.351 13.3131 207.511 12.8105C207.672 12.3079 207.902 11.872 208.202 11.5028C208.502 11.1336 208.861 10.8464 209.28 10.6412C209.699 10.431 210.17 10.3259 210.693 10.3259C211.138 10.3259 211.518 10.3977 211.833 10.5412C212.149 10.6797 212.431 10.8669 212.679 11.1028V6.93359H214.596V18.3643H213.424ZM210.871 16.972C211.27 16.972 211.608 16.89 211.888 16.7259C212.167 16.5618 212.431 16.3285 212.679 16.0259V12.4874C212.462 12.2259 212.225 12.0412 211.965 11.9336C211.712 11.8259 211.438 11.772 211.143 11.772C210.853 11.772 210.589 11.8259 210.351 11.9336C210.118 12.0412 209.92 12.2054 209.754 12.4259C209.594 12.6412 209.47 12.9182 209.381 13.2566C209.294 13.59 209.249 13.9849 209.249 14.4412C209.249 14.9028 209.286 15.2951 209.358 15.6182C209.436 15.9362 209.544 16.1977 209.684 16.4028C209.824 16.6028 209.994 16.7489 210.196 16.8412C210.398 16.9285 210.623 16.972 210.871 16.972ZM220.197 10.3489C220.698 10.3489 221.159 10.4285 221.578 10.5874C222.002 10.7464 222.366 10.9797 222.672 11.2874C222.977 11.59 223.215 11.9643 223.386 12.4105C223.557 12.8516 223.642 13.3566 223.642 13.9259C223.642 14.0695 223.634 14.19 223.619 14.2874C223.608 14.3797 223.585 14.4541 223.549 14.5105C223.518 14.5618 223.474 14.6002 223.417 14.6259C223.36 14.6464 223.288 14.6566 223.2 14.6566H218.28C218.337 15.4669 218.556 16.0618 218.94 16.4412C219.322 16.8208 219.829 17.0105 220.461 17.0105C220.771 17.0105 221.037 16.9746 221.26 16.9028C221.487 16.831 221.684 16.7516 221.85 16.6643C222.02 16.5772 222.168 16.4977 222.292 16.4259C222.421 16.3541 222.545 16.3182 222.664 16.3182C222.742 16.3182 222.809 16.3336 222.866 16.3643C222.923 16.3951 222.972 16.4387 223.014 16.4951L223.572 17.1874C223.36 17.4336 223.122 17.6412 222.858 17.8105C222.595 17.9746 222.318 18.1079 222.028 18.2105C221.743 18.3079 221.451 18.3772 221.151 18.4182C220.856 18.4592 220.569 18.4797 220.29 18.4797C219.736 18.4797 219.221 18.39 218.746 18.2105C218.269 18.0259 217.855 17.7566 217.504 17.4028C217.152 17.0439 216.875 16.6028 216.674 16.0797C216.472 15.5516 216.371 14.9412 216.371 14.2489C216.371 13.7105 216.459 13.2054 216.635 12.7336C216.81 12.2566 217.062 11.8439 217.387 11.4951C217.718 11.1412 218.119 10.8618 218.59 10.6566C219.066 10.4516 219.601 10.3489 220.197 10.3489ZM220.235 11.7105C219.677 11.7105 219.239 11.8669 218.924 12.1797C218.608 12.4926 218.406 12.9362 218.319 13.5105H221.919C221.919 13.2643 221.885 13.0336 221.819 12.8182C221.751 12.5977 221.648 12.4054 221.508 12.2412C221.368 12.0772 221.192 11.9489 220.98 11.8566C220.768 11.7592 220.519 11.7105 220.235 11.7105ZM225.429 18.3643V10.472H226.601C226.85 10.472 227.012 10.5874 227.09 10.8182L227.214 11.4028C227.354 11.2489 227.499 11.1079 227.649 10.9797C227.804 10.8516 227.967 10.7412 228.138 10.6489C228.314 10.5566 228.5 10.4849 228.696 10.4336C228.898 10.3772 229.119 10.3489 229.356 10.3489C229.858 10.3489 230.269 10.4849 230.59 10.7566C230.916 11.0233 231.16 11.3797 231.319 11.8259C231.444 11.5643 231.599 11.3412 231.785 11.1566C231.971 10.9669 232.176 10.8131 232.398 10.6951C232.621 10.5772 232.856 10.49 233.104 10.4336C233.358 10.3772 233.612 10.3489 233.865 10.3489C234.305 10.3489 234.695 10.4156 235.037 10.5489C235.378 10.6823 235.665 10.8772 235.898 11.1336C236.131 11.39 236.307 11.7028 236.426 12.072C236.55 12.4412 236.612 12.8643 236.612 13.3412V18.3643H234.695V13.3412C234.695 12.8387 234.584 12.4618 234.361 12.2105C234.14 11.9541 233.814 11.8259 233.384 11.8259C233.187 11.8259 233.003 11.8592 232.833 11.9259C232.667 11.9926 232.52 12.09 232.39 12.2182C232.266 12.3412 232.168 12.4977 232.095 12.6874C232.023 12.8772 231.987 13.0951 231.987 13.3412V18.3643H230.062V13.3412C230.062 12.8131 229.954 12.4285 229.736 12.1874C229.524 11.9464 229.209 11.8259 228.79 11.8259C228.516 11.8259 228.257 11.8951 228.014 12.0336C227.776 12.1669 227.553 12.3516 227.346 12.5874V18.3643H225.429ZM241.28 20.5336C241.222 20.6669 241.148 20.7669 241.055 20.8336C240.966 20.9054 240.83 20.9412 240.643 20.9412H239.215L240.705 17.7797L237.485 10.472H239.161C239.316 10.472 239.435 10.5079 239.518 10.5797C239.6 10.6516 239.662 10.7336 239.704 10.8259L241.404 14.9182C241.461 15.0516 241.509 15.19 241.551 15.3336C241.592 15.4772 241.629 15.6208 241.66 15.7643C241.701 15.6156 241.745 15.472 241.792 15.3336C241.843 15.1951 241.897 15.0541 241.955 14.9105L243.553 10.8259C243.595 10.7233 243.662 10.6387 243.755 10.572C243.853 10.5054 243.962 10.472 244.081 10.472H245.618L241.28 20.5336Z" fill="#187163"/>
</g>
<defs>
<clipPath id="clip0_1291_4488">
<rect width="246" height="30" fill="white"/>
</clipPath>
</defs>
</svg>
